<?xml version="1.0" standalone="no"?>
<!DOCTYPE svg PUBLIC "-//W3C//DTD SVG 20010904//EN"
 "http://www.w3.org/TR/2001/REC-SVG-20010904/DTD/svg10.dtd">
<svg version="1.0" xmlns="http://www.w3.org/2000/svg"
 width="50.000000pt" height="50.000000pt" viewBox="0 0 50.000000 50.000000"
 preserveAspectRatio="xMidYMid meet">

<g transform="translate(0.000000,50.000000) scale(0.100000,-0.100000)"
fill="#000000" stroke="none">
<path d="M60 411 c-40 -11 -54 -54 -54 -161 0 -115 13 -150 63 -163 19 -5 113
-7 208 -5 141 2 175 6 188 19 26 26 40 138 27 216 -6 36 -18 74 -27 82 -13 13
-47 16 -198 18 -100 1 -193 -2 -207 -6z m208 -111 c39 -23 72 -46 72 -50 0 -6
-81 -58 -152 -97 -5 -2 -8 41 -8 97 0 56 3 99 8 97 4 -2 40 -23 80 -47z"/>
</g>
</svg>
